HIERARCHY
ROOT RootJoint
{
    OFFSET   0.000000   0.000000   0.000000
    CHANNELS 6 Xposition Yposition Zposition Xrotation Yrotation Zrotation
    JOINT pelvis_lowerback
    {
        OFFSET   0.000000   0.093605   0.000000
        CHANNELS 3 Xrotation Yrotation Zrotation
        JOINT lowerback_torso
        {
            OFFSET   0.000000   0.100000   0.000000
            CHANNELS 3 Xrotation Yrotation Zrotation
            JOINT torso_head
            {
                OFFSET   0.000000   0.282350   0.000000
                CHANNELS 3 Xrotation Yrotation Zrotation
                End Site
                {
                    OFFSET   0.000000   0.192650   0.000000
                }
            }
            JOINT rTorso_Clavicle
            {
                OFFSET  -0.001000   0.157500   0.000000
                CHANNELS 3 Xrotation Yrotation Zrotation
                JOINT rShoulder
                {
                    OFFSET  -0.117647   0.000000   0.000000
                    CHANNELS 3 Xrotation Yrotation Zrotation
                    JOINT rElbow
                    {
                        OFFSET  -0.245000   0.000000   0.000000
                        CHANNELS 3 Xrotation Yrotation Zrotation
                        JOINT rWrist
                        {
                            OFFSET  -0.240000   0.000000   0.000000
                            CHANNELS 3 Xrotation Yrotation Zrotation
                            End Site
                            {
                                OFFSET  -0.116353  -0.002500   0.000000
                            }
                        }
                    }
                }
            }
            JOINT lTorso_Clavicle
            {
                OFFSET   0.001000   0.157500   0.000000
                CHANNELS 3 Xrotation Yrotation Zrotation
                JOINT lShoulder
                {
                    OFFSET   0.117647   0.000000   0.000000
                    CHANNELS 3 Xrotation Yrotation Zrotation
                    JOINT lElbow
                    {
                        OFFSET   0.245000   0.000000   0.000000
                        CHANNELS 3 Xrotation Yrotation Zrotation
                        JOINT lWrist
                        {
                            OFFSET   0.240000   0.000000   0.000000
                            CHANNELS 3 Xrotation Yrotation Zrotation
                            End Site
                            {
                                OFFSET   0.116353  -0.002500   0.000000
                            }
                        }
                    }
                }
            }
        }
    }
    JOINT rHip
    {
        OFFSET  -0.100000  -0.051395   0.000000
        CHANNELS 3 Xrotation Yrotation Zrotation
        JOINT rKnee
        {
            OFFSET   0.000000  -0.410000   0.000000
            CHANNELS 3 Xrotation Yrotation Zrotation
            JOINT rAnkle
            {
                OFFSET   0.000000  -0.390000   0.000000
                CHANNELS 3 Xrotation Yrotation Zrotation
                JOINT rToeJoint
                {
                    OFFSET   0.000000  -0.050000   0.130000
                    CHANNELS 3 Xrotation Yrotation Zrotation
                    End Site
                    {
                        OFFSET  -0.010000   0.002000   0.060000
                    }
                }
            }
        }
    }
    JOINT lHip
    {
        OFFSET   0.100000  -0.051395   0.000000
        CHANNELS 3 Xrotation Yrotation Zrotation
        JOINT lKnee
        {
            OFFSET   0.000000  -0.410000   0.000000
            CHANNELS 3 Xrotation Yrotation Zrotation
            JOINT lAnkle
            {
                OFFSET   0.000000  -0.390000   0.000000
                CHANNELS 3 Xrotation Yrotation Zrotation
                JOINT lToeJoint
                {
                    OFFSET   0.000000  -0.050000   0.130000
                    CHANNELS 3 Xrotation Yrotation Zrotation
                    End Site
                    {
                        OFFSET   0.010000   0.002000   0.060000
                    }
                }
            }
        }
    }
}
MOTION
Frames: 17
Frame Time:   0.008333
 -2.506354   0.960430   9.858800   3.939799 -23.055665  -0.614364   4.216754  -5.520166   1.075300   2.527313  -4.846240   2.930170  -2.360962   1.454783  -1.235089   6.598372  -6.580270   0.040083  10.165342   0.437800  48.461446 -179.993364  78.677365 179.993509   1.923436   4.624169 -17.071855   5.514707  -1.695723   3.810715   7.578264 -11.043377 -50.141911 -179.985236 -79.206023 -179.984103   1.975573  -6.525196  12.054223 -22.810887   2.792753   4.822463  26.351832   0.012193   0.008079  -0.947804   3.609025   4.932614  -1.652536  -0.000446   0.000889   2.190426  -5.081847   2.027598  36.773719  -0.012724  -0.019838  16.281240   0.348531  -3.456847 -20.564628  -0.021360  -0.028328
 -2.510535   0.957830   9.870433   3.613419 -23.294268  -0.771474   4.360999  -5.499971   1.174999   2.556544  -4.706047   2.912986  -2.333264   1.503723  -1.160767   6.427677  -6.502774   0.137383   9.749747   0.497032  48.139488 -179.990963  78.421708 179.990792   1.993474   4.482885 -17.060303   5.550942  -1.704792   3.628006   7.819704 -11.112990 -50.243645 -179.984620 -79.603983 -179.983004   2.105315  -6.716220  12.009446 -22.312250   2.872044   5.083770  26.089942   0.010183   0.006673  -1.347898   3.614986   4.218745  -1.434912   0.000681   0.000684   2.085477  -5.017860   2.178535  39.190806  -0.015843  -0.015930  14.703284   0.664096  -3.343182 -19.087734  -0.023632  -0.019165
 -2.514824   0.954537   9.882023   3.246482 -23.517145  -0.947274   4.517851  -5.448089   1.251855   2.627152  -4.543683   2.886869  -2.292149   1.550456  -1.079946   6.243114  -6.417416   0.215815   9.337613   0.563291  47.828130 -179.989817  78.165589 179.989261   2.093540   4.444730 -17.092288   5.601785  -1.700933   3.434722   8.063302 -11.160728 -50.336002 -179.985055 -80.010766 -179.982844   2.202106  -6.751871  11.982075 -21.763302   2.957578   5.346253  25.964469   0.008353   0.005417  -1.720532   3.623297   3.551500  -1.261934   0.001281   0.000519   1.972415  -4.951014   2.376054  41.618700  -0.018722  -0.011497  13.235766   0.959714  -3.228809 -17.765548  -0.024813  -0.011678
 -2.519177   0.950578   9.893579   2.891010 -23.721526  -1.102543   4.657888  -5.371334   1.301366   2.699432  -4.364934   2.842909  -2.250432   1.594392  -1.004258   6.062297  -6.330783   0.281632   8.945057   0.630866  47.532978 -179.989685  77.921922 179.988761   2.202273   4.448766 -17.136003   5.665298  -1.681217   3.242080   8.306573 -11.197238 -50.426894 -179.986640 -80.399703 -179.983852   2.280391  -6.718364  11.947247 -21.196548   3.044741   5.583361  25.883802   0.006814   0.004379  -2.066262   3.634847   2.928754  -1.099655   0.001646   0.000384   1.843664  -4.895722   2.590964  43.913259  -0.020875  -0.007125  11.867499   1.233123  -3.114638 -16.552868  -0.025221  -0.005782
 -2.523565   0.945957   9.905095   2.557815 -23.903457  -1.231789   4.781556  -5.277232   1.328176   2.764329  -4.176815   2.783583  -2.211851   1.635869  -0.935040   5.888051  -6.244424   0.337083   8.573776   0.698201  47.254233 -179.990217  77.692291 179.988974   2.312041   4.469811 -17.182756   5.735115  -1.650611   3.055191   8.544042 -11.225916 -50.515201 -179.988985 -80.766655 -179.985711   2.348951  -6.656978  11.909764 -20.625401   3.132464   5.792586  25.826433   0.005544   0.003529  -2.387843   3.648783   2.347482  -0.948486   0.001840   0.000281   1.695514  -4.852024   2.816374  46.055312  -0.022190  -0.002974  10.589733   1.485743  -3.001589 -15.443321  -0.024973  -0.001188
 -2.527969   0.940675   9.916566   2.248085 -24.062950  -1.336008   4.892110  -5.171115   1.337187   2.821543  -3.984319   2.712770  -2.176668   1.675054  -0.872033   5.720883  -6.158769   0.383528   8.223221   0.764809  46.991290 -179.991141  77.476463 179.989641   2.420488   4.499670 -17.230043   5.807070  -1.613313   2.876570   8.772396 -11.248831 -50.599751 -179.991697 -81.111250 -179.988058   2.411427  -6.583760  11.874334 -20.056902   3.220285   5.976262  25.785583   0.004499   0.002838  -2.687181   3.664557   1.804921  -0.808253   0.001909   0.000209   1.529077  -4.818693   3.047978  48.048579  -0.022727   0.000803   9.396008   1.719084  -2.890424 -14.428853  -0.024212   0.002331
 -2.532372   0.934730   9.927996   1.960899 -24.202090  -1.417342   4.992330  -5.056938   1.332647   2.872444  -3.790916   2.633973  -2.144456   1.712057  -0.814682   5.560974  -6.074216   0.422207   7.892590   0.830395  46.743496 -179.992259  77.273817 179.990572   2.526822   4.535298 -17.276623   5.878853  -1.572095   2.707240   8.990088 -11.267379 -50.680002 -179.994478 -81.434141 -179.990599   2.469478  -6.505580  11.842825 -19.495814   3.307699   6.137616  25.757870   0.003642   0.002278  -2.965887   3.681732   1.298508  -0.678385   0.001892   0.000162   1.347136  -4.794394   3.281845  49.901472  -0.022613   0.004089   8.280688   1.934584  -2.781745 -13.501395  -0.023079   0.004954
 -2.536746   0.927895   9.939155   1.615566 -24.204050  -1.659028   5.224608  -4.982138   1.442288   2.904296  -3.621008   2.684458  -2.234596   1.727511  -0.739150   5.255014  -5.998290   0.374939   7.411470   0.960802  46.298298 -179.992898  77.079075 179.990714   2.698503   4.410179 -17.277238   5.874730  -1.470131   2.440910   9.155441 -11.059355 -50.821252 179.991650 -81.959540 179.996609   2.601281  -6.653836  11.731654 -19.134150   3.317383   6.400184  26.970938   0.001494   0.002797  -4.377098   3.446321   0.547891  -0.404304   0.002989  -0.000213   0.899916  -4.668834   3.801638  52.392605  -0.021784   0.014549   6.877825   2.199158  -2.568656 -12.735061  -0.021851   0.008760
 -2.541187   0.920367   9.950466   1.237186 -24.143682  -1.917324   5.435372  -4.872886   1.563944   2.943269  -3.420896   2.746784  -2.318010   1.738117  -0.652785   4.930643  -5.909685   0.288851   6.926066   1.086193  45.846382 -179.993885  76.896473 179.991284   2.875115   4.302078 -17.370251   5.893021  -1.343729   2.164920   9.332685 -10.836232 -50.956584 179.974409 -82.484488 179.980313   2.698628  -6.647284  11.686466 -18.651716   3.344306   6.619972  28.331561   0.000218   0.003964  -5.696170   3.239345  -0.158700  -0.211890   0.003389  -0.000289   0.422364  -4.567334   4.392404  54.828276  -0.020245   0.024599   5.571169   2.443684  -2.363200 -12.050314  -0.020366   0.011733
 -2.545665   0.912174   9.961906   0.870615 -24.046789  -2.145556   5.600657  -4.724651   1.674733   2.964458  -3.189942   2.802049  -2.397050   1.748330  -0.567796   4.611845  -5.814261   0.189725   6.458599   1.210533  45.412144 -179.995095  76.723577 179.992205   3.051579   4.216755 -17.496746   5.929606  -1.198699   1.901285   9.518166 -10.612969 -51.085163 179.955460 -82.984087 179.962043   2.777546  -6.569948  11.660102 -18.071844   3.390762   6.777874  29.677646  -0.000325   0.005131  -6.925078   3.060585  -0.822805  -0.026748   0.003640  -0.000262  -0.091562  -4.494457   5.000451  57.109444  -0.018171   0.032798   4.351160   2.667846  -2.165442 -11.424915  -0.018780   0.013866
 -2.550154   0.903314   9.973431   0.526223 -23.926510  -2.337699   5.726495  -4.544096   1.773118   2.964160  -2.934446   2.849092  -2.474078   1.758755  -0.487604   4.302994  -5.711498   0.087144   6.012279   1.336035  45.001108 -179.996375  76.559750 179.993323   3.226280   4.151725 -17.627849   5.976879  -1.041630   1.655778   9.705105 -10.392933 -51.205255 179.936064 -83.454406 179.943052   2.846733  -6.464290  11.650535 -17.422396   3.452594   6.882220  30.976929  -0.000408   0.006093  -8.071437   2.906544  -1.446384   0.148966   0.003758  -0.000178  -0.639676  -4.447241   5.608479  59.226175  -0.015784   0.038944   3.210739   2.873155  -1.975554 -10.855809  -0.017140   0.015233
 -2.554564   0.894867   9.984582   0.256062 -23.892425  -2.650148   5.864517  -4.297004   1.982666   2.951629  -2.627512   2.954156  -2.560093   1.771358  -0.407915   3.992821  -5.565043   0.038180   5.575519   1.476367  44.623519 -179.997678  76.424702 179.994757   3.383541   4.052677 -17.740730   6.027899  -0.894060   1.363448   9.883334 -10.183904 -51.336135 179.919401 -83.912738 179.926905   2.900648  -6.291537  11.669442 -16.754710   3.509314   7.185192  32.496627  -0.001191   0.006827 -10.035549   2.824050  -2.146562  -8.966781  -0.044397  -0.007178  -1.265781  -4.443550   6.343292  61.139256  -0.014603   0.041360   2.146035   3.062592  -1.792730 -10.323764  -0.015835   0.015588
 -2.558646   0.888542   9.994823  -0.029821 -24.096460  -3.278259   6.177585  -3.940240   2.396035   3.003334  -2.233959   3.175678  -2.655502   1.787454  -0.321571   3.667365  -5.322301   0.098148   5.133472   1.657153  44.299753 -179.998915  76.331658 179.996414   3.506543   3.869242 -17.790139   6.072704  -0.786948   0.970972  10.039845  -9.999760 -51.498061 179.911736 -84.373361 179.920150   2.928298  -5.999143  11.715071 -16.418133   3.507434   7.882618  34.158317  -0.003237   0.005735 -12.825318   2.835479  -3.042646  -8.041554  -0.029356  -0.004520  -1.903869  -4.495174   7.260084  62.814373  -0.015598   0.038570   1.153385   3.239157  -1.615342  -9.809695  -0.015137   0.014530
 -2.562279   0.884211  10.004353  -0.074711 -24.172861  -3.743679   6.379451  -3.674957   2.707034   3.016117  -1.913142   3.399172  -2.818345   1.689587  -0.193591   3.340588  -4.973969   0.072685   4.735068   1.936554  44.079272 -179.995108  76.588147 179.993615   3.627637   3.739223 -17.735984   6.159306  -0.653613   0.596236  10.376848  -9.670860 -51.586647 179.908618 -84.794749 179.917622   2.904298  -5.829169  11.635658 -16.339454   3.371939   8.388293  35.638396  -0.003764   0.004093 -14.541760   2.904826  -3.227348  -7.675689  -0.023168  -0.003415  -3.057336  -4.674014   8.001253  64.343004  -0.014650   0.035454   0.061428   3.317272  -1.324052  -9.368491  -0.014039   0.012867
 -2.565726   0.881075  10.013807  -0.163068 -24.179820  -4.106402   6.595945  -3.403270   2.907003   3.060506  -1.589679   3.564208  -2.969121   1.588841  -0.077045   3.041616  -4.641294   0.011794   4.368613   2.199260  43.865280 -179.991024  76.841199 179.990521   3.705729   3.498822 -17.621759   6.274743  -0.485467   0.303279  10.730887  -9.335197 -51.646745 179.903562 -85.191377 179.912863   2.873767  -5.638625  11.515065 -16.128852   3.215855   8.735631  36.889162  -0.003901   0.002732 -15.700214   2.937803  -3.392567  -7.957447  -0.018733  -0.002795  -4.304298  -4.844135   8.550921  65.711956  -0.012187   0.032505  -0.966146   3.381383  -1.050936  -9.000860  -0.012343   0.011382
 -2.569071   0.878696  10.023360  -0.297475 -24.161275  -4.392162   6.795439  -3.108049   3.032989   3.121803  -1.252956   3.672221  -3.100890   1.494635   0.024855   2.765240  -4.339165  -0.088455   4.028644   2.439722  43.648986 -179.987761  77.071437 179.988144   3.777929   3.259064 -17.501825   6.405062  -0.287472   0.070669  11.086720  -8.997895 -51.688086 179.895629 -85.560785 179.904957   2.841290  -5.438958  11.404638 -15.792787   3.032047   8.963650  37.986742  -0.004073   0.001273 -16.525340   2.895857  -3.544080  -8.646808  -0.015415  -0.001672  -5.581182  -4.986358   8.956413  66.963401  -0.009297   0.029703  -1.928959   3.434130  -0.795890  -8.679620  -0.010549   0.010070
 -2.572361   0.876801  10.033081  -0.467742 -24.129250  -4.622647   6.963939  -2.796756   3.110827   3.181786  -0.907175   3.738338  -3.218408   1.407368   0.114988   2.506162  -4.064096  -0.220158   3.709918   2.659839  43.430458 -179.985572  77.280041 179.986685   3.853364   3.045633 -17.397295   6.543911  -0.067969  -0.117986  11.437787  -8.662834 -51.716940 179.885184 -85.904798 179.894323   2.808250  -5.237918  11.321710 -15.354999   2.846953   9.107290  38.969250  -0.004185   0.000007 -17.144925   2.814456  -3.721331  -9.517567  -0.013123  -0.000212  -6.858613  -5.109301   9.261304  68.119029  -0.006541   0.027063  -2.829822   3.477731  -0.557677  -8.395388  -0.008865   0.008909
